Coordinates
version=1
nRows=11
nColumns=42
inDegrees=yes

Units are S.I. units (second, meters, Newtons, ...)
If the header above contains a line with 'inDegrees', this indicates whether rotational values are in degrees (yes) or radians (no).

endheader
time	pelvis_tilt	pelvis_list	pelvis_rotation	pelvis_tx	pelvis_ty	pelvis_tz	hip_flexion_r	hip_adduction_r	hip_rotation_r	knee_angle_r	knee_adduction_r	knee_angle_r_beta	ankle_angle_r	subtalar_angle_r	mtp_angle_r	hip_flexion_l	hip_adduction_l	hip_rotation_l	knee_angle_l	knee_adduction_l	knee_angle_l_beta	ankle_angle_l	subtalar_angle_l	mtp_angle_l	lumbar_extension	lumbar_bending	lumbar_rotation	arm_flex_r	arm_add_r	arm_rot_r	elbow_flex_r	pro_sup_r	wrist_flex_r	wrist_dev_r	arm_flex_l	arm_add_l	arm_rot_l	elbow_flex_l	pro_sup_l	wrist_flex_l	wrist_dev_l
      1.20000000	     14.49558009	      1.05148093	     -8.32828596	      0.35137342	      0.98182219	     -0.09655093	     -9.11960450	     -3.18735551	     -4.04756459	     63.73577595	     -3.84358779	      1.11239914	      3.21544348	     -4.59441166	     -7.57960784	     -2.71315192	      5.52794483	     -8.46783545	     18.15674322	      0.81470943	      0.31689495	      5.89368836	      4.85047394	     -7.57960784	    -32.81023231	     -1.79247939	      7.87057364	     -1.30641184	    -22.99835133	     -3.64160817	     72.43472327	     90.00000001	      0.00000000	      0.00000000	     -3.39099882	    -19.13585659	      4.18122861	     54.48884111	     90.00000001	      0.00000000	      0.00000000
      1.21000000	     14.47274703	      0.94471551	     -8.04633399	      0.36453026	      0.98405570	     -0.09677731	     -7.46139816	     -2.99640164	     -4.41107055	     63.77415127	     -3.94289042	      1.11306892	      4.36296475	     -4.61648975	     -7.57735733	     -4.17550264	      5.53757938	     -8.08931698	     16.91144244	      0.91716468	      0.29516035	      6.03881476	      5.32456851	     -7.57735733	    -32.78328481	     -1.45096426	      7.61666246	     -1.63436205	    -23.07385222	     -3.92962966	     72.51845229	     90.00000001	      0.00000000	      0.00000000	     -2.85724833	    -19.29123318	      3.97620833	     55.20318460	     90.00000001	      0.00000000	      0.00000000
      1.22000000	     14.25710416	      0.73846722	     -7.72575006	      0.37744550	      0.98577572	     -0.09704532	     -5.62009458	     -2.63762674	     -4.68181730	     63.47856478	     -3.94650466	      1.10790996	      5.28390137	     -4.68807888	     -7.57626505	     -5.28325528	      5.41430582	     -8.12500908	     15.95921850	      0.83288184	      0.27854091	      6.17727966	      5.68985150	     -7.57626505	    -32.58573403	     -0.96941505	      7.39438708	     -1.93377652	    -23.22218431	     -4.11209062	     72.55071978	     90.00000001	      0.00000000	      0.00000000	     -2.31434162	    -19.43402512	      3.82613409	     55.89999966	     90.00000001	      0.00000000	      0.00000000
      1.23000000	     14.43865276	      0.68649786	     -7.40681301	      0.39060387	      0.98778879	     -0.09723180	     -4.33797329	     -2.54044282	     -4.98032330	     62.71315555	     -3.87887665	      1.09455105	      6.39333188	     -4.39127508	     -7.57349757	     -7.09696514	      5.50712161	     -7.70643781	     14.37714138	      0.89859919	      0.25092845	      6.22754656	      6.63971714	     -7.57349757	    -32.77476017	     -0.71215639	      7.12590896	     -2.28455894	    -23.24136277	     -4.53083443	     72.70377213	     90.00000001	      0.00000000	      0.00000000	     -1.76109909	    -19.65834789	      3.68033305	     56.77281402	     90.00000001	      0.00000000	      0.00000000
      1.24000000	     14.35205016	      0.56460887	     -7.06188417	      0.40352288	      0.98908833	     -0.09736748	     -2.78261244	     -2.29744999	     -5.03277934	     61.73481983	     -3.60350060	      1.07747587	      7.14660097	     -4.49074565	     -7.57111680	     -8.43267955	      5.46181191	     -7.66226409	     13.18580976	      0.85052097	      0.23013579	      6.40299605	      7.43732004	     -7.57111680	    -32.69695487	     -0.35415258	      6.88918065	     -2.59431992	    -23.29709248	     -4.85573252	     72.78489002	     90.00000001	      0.00000000	      0.00000000	     -1.18949794	    -19.87361717	      3.57611554	     57.58801096	     90.00000001	      0.00000000	      0.00000000
      1.25000000	     14.20628172	      0.46550468	     -6.73064377	      0.41638420	      0.98995801	     -0.09744840	     -1.21095218	     -2.07384404	     -4.85375675	     60.52396650	     -3.14108630	      1.05634249	      7.73166336	     -4.83014213	     -7.56927892	     -9.67407828	      5.41094857	     -7.65425187	     12.03925190	      0.82571373	      0.21012459	      6.65862994	      8.29829912	     -7.56927892	    -32.55518810	     -0.02802770	      6.66440288	     -2.89610747	    -23.33768419	     -5.20903792	     72.84728064	     90.00000001	      0.00000000	      0.00000000	     -0.61007820	    -20.09778612	      3.49998369	     58.42818555	     90.00000001	      0.00000000	      0.00000000
      1.26000000	     14.25589051	      0.32728426	     -6.43298506	      0.42931061	      0.99081795	     -0.09737636	      0.01840718	     -1.83124705	     -4.33616810	     58.96392352	     -2.38165344	      1.02911461	      7.92721570	     -5.63436631	     -7.56672603	    -11.14902027	      5.34282591	     -7.71939169	     10.87537221	      0.77372852	      0.18981105	      6.90549682	      9.27639092	     -7.56672603	    -32.61948357	      0.28085843	      6.51150656	     -3.20930494	    -23.38545496	     -5.60769353	     72.94924511	     90.00000001	      0.00000000	      0.00000000	      0.03225292	    -20.35227672	      3.52196775	     59.26736764	     90.00000001	      0.00000000	      0.00000000
      1.27000000	     13.89506341	      0.43599191	     -6.10385790	      0.44203257	      0.99056980	     -0.09748676	      1.78977330	     -1.86239804	     -4.26179032	     57.39987474	     -2.00218035	      1.00181680	      8.18110165	     -5.72893103	     -7.56600242	    -11.83440024	      5.45810817	     -8.01548272	     10.37497739	      0.71777323	      0.18107752	      7.19211781	      9.45367785	     -7.56600242	    -32.21545190	      0.40253682	      6.19323633	     -3.47895455	    -23.45033877	     -5.75881502	     72.93325905	     90.00000001	      0.00000000	      0.00000000	      0.69374050	    -20.57362711	      3.44764476	     59.93176793	     90.00000001	      0.00000000	      0.00000000
      1.28000000	     14.21064002	      0.05154732	     -5.91413410	      0.45501595	      0.99128105	     -0.09678499	      2.45620219	     -1.30128421	     -2.74133349	     55.22675910	     -0.55152764	      0.96388878	      7.66412113	     -8.22851903	     -7.56215866	    -13.86760677	      5.07146412	     -7.56806893	      8.72868193	      0.94078498	      0.15234424	      7.53468256	     10.56800510	     -7.56215866	    -32.60633908	      0.81298127	      6.30984174	     -3.80024772	    -23.39784622	     -6.43568135	     73.09441996	     90.00000001	      0.00000000	      0.00000000	      1.40047361	    -20.90473813	      3.70908089	     60.92852602	     90.00000001	      0.00000000	      0.00000000
      1.29000000	     14.04390122	      0.09512466	     -5.59752710	      0.46779213	      0.99067137	     -0.09661378	      3.79970133	     -1.29244874	     -2.13370260	     53.20264776	      0.23483576	      0.92856137	      7.88098106	     -8.67006950	     -7.56086019	    -14.96313034	      5.13294637	     -7.26403735	      7.81921178	      0.92138076	      0.13647099	      8.10386002	     11.12119852	     -7.56086019	    -32.42727108	      0.92232242	      6.06779158	     -4.03349933	    -23.31144280	     -6.89312929	     73.03735819	     90.00000001	      0.00000000	      0.00000000	      2.10524254	    -21.20596326	      3.79765608	     61.78107415	     90.00000001	      0.00000000	      0.00000000
      1.30000000	     14.15521560	      0.03133465	     -5.32848169	      0.48079125	      0.99024832	     -0.09615132	      4.64045110	     -1.17962852	     -1.29680239	     50.76173538	      1.14356811	      0.88595942	      7.69779688	     -9.63712412	     -7.55931430	    -16.43611774	      5.03841850	     -6.97459231	      6.83220902	      1.05354814	      0.11924454	      8.52445059	     11.60336986	     -7.55931430	    -32.53672243	      1.06669358	      5.95635161	     -4.33609875	    -23.19808876	     -7.40687822	     73.08900621	     90.00000001	      0.00000000	      0.00000000	      2.89208456	    -21.53131271	      4.10314216	     62.56776142	     90.00000001	      0.00000000	      0.00000000
